<svg width="20" height="26" viewBox="0 0 20 26" fill="none" xmlns="http://www.w3.org/2000/svg">
<path d="M5 23H15V19.25C15 17.875 14.5104 16.6979 13.5312 15.7188C12.5521 14.7396 11.375 14.25 10 14.25C8.625 14.25 7.44792 14.7396 6.46875 15.7188C5.48958 16.6979 5 17.875 5 19.25V23ZM10 11.75C11.375 11.75 12.5521 11.2604 13.5312 10.2812C14.5104 9.30208 15 8.125 15 6.75V3H5V6.75C5 8.125 5.48958 9.30208 6.46875 10.2812C7.44792 11.2604 8.625 11.75 10 11.75ZM0 25.5V23H2.5V19.25C2.5 17.9792 2.79708 16.7863 3.39125 15.6713C3.98458 14.5571 4.8125 13.6667 5.875 13C4.8125 12.3333 3.98458 11.4425 3.39125 10.3275C2.79708 9.21333 2.5 8.02083 2.5 6.75V3H0V0.5H20V3H17.5V6.75C17.5 8.02083 17.2033 9.21333 16.61 10.3275C16.0158 11.4425 15.1875 12.3333 14.125 13C15.1875 13.6667 16.0158 14.5571 16.61 15.6713C17.2033 16.7863 17.5 17.9792 17.5 19.25V23H20V25.5H0Z" fill="#1C1B1F"/>
</svg>
